<svg width="260" height="103" viewBox="0 0 260 103" fill="none" xmlns="http://www.w3.org/2000/svg">
<path d="M234.593 0.696358C234.593 1.19377 240.463 12.6343 247.526 26.3629C256.977 44.3692 260.26 51.6315 259.663 52.7258C258.967 53.9196 242.851 84.7592 235.091 99.98C234.096 101.771 232.902 101.97 221.362 102.268C214.398 102.368 208.728 102.268 208.728 101.97C208.728 101.572 210.917 97.1945 213.603 92.2204C216.189 87.1468 222.158 75.9052 226.635 67.1507L234.892 51.333L230.017 41.8822C227.331 36.6096 221.462 25.2686 216.886 16.6136C212.409 7.9586 208.728 0.696358 208.728 0.497398C208.728 0.198944 214.498 -1.52588e-05 221.661 -1.52588e-05C228.724 -1.52588e-05 234.593 0.298431 234.593 0.696358ZM231.012 2.78549C231.211 3.18343 227.232 3.38239 222.158 3.18343L212.707 2.78549L214.995 6.7648C216.388 9.45083 217.383 10.4457 217.98 9.6498C218.477 8.95341 218.577 9.25187 218.179 10.5451C217.582 12.9327 220.168 19.8965 221.76 19.8965C222.357 19.8965 222.556 20.5929 222.258 21.4882C221.86 22.5825 222.059 22.9805 223.053 22.5825C224.148 22.1846 224.347 22.4831 223.949 23.5774C223.551 24.6717 223.65 24.9701 224.546 24.4727C225.342 23.9753 225.74 24.1743 225.541 24.9701C225.242 27.8551 225.64 29.9443 226.535 29.4468C227.033 29.0489 227.729 30.1432 228.127 31.8344C228.525 33.6251 229.221 34.5205 229.918 34.1225C230.515 33.7246 230.714 34.1225 230.316 35.0179C230.017 35.9132 230.913 38.4998 232.504 40.9868C236.782 47.7516 238.374 54.7154 235.588 54.7154C235.091 54.7154 234.892 55.4118 235.19 56.2077C235.588 57.0035 235.29 57.6999 234.593 57.6999C233.897 57.6999 233.599 58.3963 233.897 59.1921C234.295 59.988 233.997 60.8833 233.4 61.2813C232.703 61.7787 232.604 61.4802 233.101 60.6844C233.599 59.8885 233.499 59.5901 232.803 60.0875C232.206 60.4854 231.907 61.3808 232.206 62.1766C232.604 62.9725 232.106 63.8678 231.311 64.2658C230.415 64.5642 230.017 65.4595 230.316 66.3549C230.714 67.4492 230.515 67.7476 229.818 67.2502C229.022 66.7528 228.625 67.2502 228.625 68.5435C228.625 69.6378 228.127 70.8316 227.63 71.1301C227.033 71.4285 226.635 72.6223 226.635 73.7166C226.635 74.7114 226.237 75.6068 225.74 75.6068C225.242 75.6068 224.645 76.3032 224.347 76.9995C223.949 78.0938 224.247 78.2928 225.441 77.8949C226.336 77.5964 225.64 78.2928 223.849 79.4866C222.158 80.5809 220.666 82.0731 220.666 82.7695C220.765 83.5654 221.362 83.2669 222.158 82.1726C223.75 80.0835 224.048 80.3819 223.053 82.9685C222.755 83.8638 221.76 84.5602 220.964 84.5602C220.168 84.5602 219.771 84.9581 220.069 85.4556C220.367 85.953 219.97 86.6493 219.174 86.9478C217.88 87.3457 217.781 87.9426 218.676 89.5343C219.472 91.0266 219.472 91.524 218.577 91.325C217.98 91.1261 216.985 91.9219 216.388 93.0162C215.692 94.0111 214.697 95.5033 214.001 96.1997C211.215 99.2836 213.503 100.079 222.855 99.3831C230.813 98.7862 232.106 98.4878 233.698 96.3986C234.693 95.1054 235.588 93.4142 235.588 92.7178C235.588 92.1209 236.086 91.524 236.683 91.524C237.18 91.524 237.478 91.1261 237.18 90.6286C236.882 90.1312 237.28 89.2359 238.075 88.5395C238.871 87.8431 239.568 86.6493 239.568 85.953C239.568 85.1571 240.065 84.5602 240.662 84.5602C241.458 84.5602 241.358 83.9633 240.463 82.869C239.269 81.3768 239.269 81.2773 240.861 81.8742C242.353 82.4711 242.453 82.2721 241.458 80.2825C240.264 78.1933 240.363 78.1933 242.154 79.5861C243.149 80.3819 243.746 80.6804 243.348 80.183C242.552 79.2876 246.83 70.1352 249.118 67.8471C249.914 67.1507 250.511 65.758 250.511 64.8626C250.511 63.9673 251.207 62.2761 252.003 61.2813C252.799 60.2864 253.197 59.0927 252.998 58.6947C252.799 58.2968 253.396 57.103 254.391 56.1082C255.286 55.0139 255.883 53.5216 255.684 52.8253C255.385 52.0294 255.684 51.7309 256.38 52.1289C257.773 53.0242 257.773 52.4273 256.281 49.2439C255.684 47.8511 254.788 46.7568 254.291 46.7568C253.794 46.7568 253.694 47.3537 254.092 47.9506C254.589 48.8459 254.291 48.8459 253.197 47.8511C251.406 46.4584 250.909 45.2646 252.401 46.2594C254.391 47.4532 254.49 44.7672 252.6 41.4842C251.506 39.5941 250.909 37.7039 251.307 37.2065C251.704 36.8085 251.406 36.908 250.61 37.306C249.516 37.9029 249.317 37.7039 249.814 36.5101C250.212 35.4158 250.013 35.1173 249.018 35.4158C248.024 35.8137 247.825 35.3163 248.123 33.6251C248.621 31.337 248.621 31.337 247.128 33.8241L245.636 36.3111L245.835 33.3267C245.934 31.337 245.636 30.4417 244.741 30.6406C243.945 30.7401 243.646 30.4417 244.044 29.8448C244.343 29.2479 245.039 29.0489 245.537 29.3474C246.034 29.6458 245.437 28.1536 244.243 25.9649C243.049 23.7763 241.756 22.2841 241.358 22.4831C240.96 22.7815 240.861 22.2841 241.159 21.3887C241.955 19.3991 238.871 14.6239 237.28 15.5193C236.384 16.0167 236.384 15.9172 237.28 14.9224C238.175 13.9276 237.976 12.7338 236.086 9.45083C234.693 7.16273 233.897 4.97411 234.395 4.4767C234.792 4.07877 234.593 3.97929 233.997 4.27773C233.3 4.67567 232.604 4.27773 232.206 3.48187C231.907 2.68601 231.41 1.98963 231.112 1.98963C230.714 1.98963 230.714 2.38757 231.012 2.78549Z" fill="#F3F0E5"/>
<path d="M194.986 25.5671L208.316 51.2336L203.641 60.1871C201.054 65.0617 195.085 76.5022 190.41 85.5551L181.954 101.97L169.021 102.268L156.088 102.567L160.465 94.3096C179.964 57.2026 182.948 51.1341 182.053 49.7414C181.556 48.9455 175.885 37.9029 169.419 25.3681C162.952 12.7338 157.282 1.89024 156.685 1.19386C155.989 0.298515 158.476 6.86646e-05 168.722 6.86646e-05H181.655L194.986 25.5671ZM161.56 4.47679C161.958 5.27265 162.455 5.77007 162.952 5.47162C163.35 5.27265 163.549 6.16799 163.35 7.46127C163.251 8.85403 163.45 9.94833 163.947 9.94833C164.345 9.94833 165.24 11.3411 165.837 13.0323C166.434 14.7235 167.33 15.8178 167.926 15.4199C168.424 15.1214 168.623 15.4199 168.324 16.2157C168.026 17.0116 168.523 18.4044 169.419 19.2002C170.215 20.0956 170.811 21.1899 170.712 21.5878C170.314 23.1795 172.105 26.8604 173 26.363C173.497 25.965 173.895 25.2687 173.895 24.7712C173.895 24.1743 173.497 23.9754 173 24.2738C172.503 24.5723 171.806 24.1743 171.508 23.3785C171.11 22.1847 171.309 22.0852 172.801 22.7816C173.796 23.3785 174.791 23.5775 175.089 23.3785C175.288 23.1795 175.487 23.7764 175.487 24.8707C175.487 25.8656 175.089 26.5619 174.791 26.2635C173.299 25.3681 174.592 30.8397 176.184 32.6304C177.178 33.6252 177.576 34.819 177.178 35.2169C176.681 35.6148 176.78 35.9133 177.377 35.8138C179.367 35.4159 180.362 35.8138 179.367 36.6097C178.77 37.0076 179.168 38.9973 180.66 41.7828C181.854 44.2698 182.65 45.1652 182.351 43.7724C181.854 41.6833 181.954 41.5838 182.849 43.076C183.446 43.9714 183.645 45.7621 183.247 47.0554C182.65 48.846 182.849 49.045 183.943 48.0502C185.137 47.0554 185.435 47.2543 185.435 48.7466C185.435 49.7414 185.137 50.4378 184.739 50.2388C184.441 50.0398 184.242 51.1341 184.341 52.7259C184.441 54.4171 184.142 55.7103 183.645 55.7103C183.247 55.7103 182.849 56.3072 182.849 57.1031C182.849 57.899 182.252 59.1922 181.556 59.8886C180.959 60.585 180.262 61.8783 180.063 62.6741C179.864 63.3705 178.77 65.3601 177.576 67.0514C175.587 69.8369 175.587 69.9364 177.477 69.24C178.87 68.7426 179.069 68.842 178.173 69.7374C177.576 70.3343 177.278 71.6276 177.576 72.5229C177.974 73.6172 177.676 73.5177 176.482 72.125C175.189 70.5332 174.99 70.4338 175.487 71.8265C175.786 72.8213 175.686 73.6172 175.089 73.6172C173.398 73.6172 172.801 76.7012 174.094 78.4919C175.089 79.7851 175.089 79.8846 173.995 78.8898C172.901 77.9944 172.204 78.1934 170.811 80.0836C169.717 81.3769 168.921 82.7696 168.921 83.267C168.921 83.665 167.827 85.7541 166.434 87.8432C163.748 91.723 163.748 92.6184 166.335 89.9324C167.23 89.1365 167.926 88.838 167.926 89.4349C167.926 89.9324 166.832 91.5241 165.539 92.8174C163.052 95.3044 160.764 98.9853 161.361 99.5822C161.659 99.7811 165.937 99.7811 171.11 99.4827C179.069 99.0848 180.362 98.7863 180.262 97.2941C180.163 96.2992 180.461 95.8018 180.959 96.1003C181.456 96.3987 182.451 95.3044 183.147 93.6132C183.844 91.922 184.64 90.7282 184.938 90.9272C185.236 91.2256 185.435 90.5293 185.535 89.4349C185.634 88.2412 185.236 87.7437 184.64 88.1417C183.943 88.5396 183.844 88.3406 184.242 87.6443C184.64 87.0474 185.336 86.7489 185.734 87.0474C186.231 87.2463 187.326 85.7541 188.32 83.5655C189.315 81.3769 190.509 79.5862 190.907 79.5862C191.404 79.5862 191.404 78.8898 191.106 77.895C190.708 76.8007 190.807 76.5022 191.603 76.9996C193.295 77.9944 193.096 76.9996 191.205 75.1094C189.614 73.6172 189.614 73.5177 191.305 73.8162C192.399 74.0151 193.891 72.8213 195.483 70.2348C196.876 68.1457 197.373 66.7529 196.577 67.1508C195.881 67.6483 196.279 66.8524 197.473 65.5591C198.766 64.1664 200.059 61.6793 200.358 59.8886C200.756 58.1974 201.353 56.9041 201.751 57.2026C202.447 57.6005 203.74 55.6109 204.138 53.7207C204.238 53.4222 204.536 52.7259 204.835 52.2284C205.63 50.9352 202.248 43.5735 201.353 44.4688C200.955 44.9662 200.756 44.3693 200.955 43.275C201.154 41.9817 200.756 41.3848 199.96 41.5838C199.164 41.6833 198.866 41.3848 199.263 40.7879C199.661 40.191 199.263 38.5993 198.368 37.3061C197.473 35.9133 196.876 34.7195 196.975 34.62C197.572 33.9236 193.295 30.0438 192.499 30.5412C192.001 30.8397 192.001 30.2428 192.598 29.248C193.692 27.2583 192.399 23.3785 190.907 24.3733C190.41 24.6718 189.713 24.1743 189.415 23.279C189.116 22.4831 189.216 21.9857 189.614 22.2842C190.012 22.4831 189.315 20.2945 187.922 17.4095C186.53 14.425 185.137 12.2364 184.64 12.5349C184.242 12.8333 183.844 12.3359 183.844 11.5401C183.844 10.7442 183.446 9.74937 182.849 9.45092C182.351 9.15247 182.152 9.45092 182.451 10.2468C182.749 11.0426 182.451 12.0375 181.755 12.5349C180.959 12.9328 180.76 12.8333 181.257 12.0375C181.655 11.4406 181.456 10.1473 180.66 9.25195C179.964 8.35661 179.864 7.8592 180.461 8.25713C181.158 8.65506 181.954 8.25713 182.252 7.36179C182.65 6.26748 182.451 5.86954 181.456 6.26748C180.66 6.56593 180.163 6.16799 180.262 5.17316C180.362 3.78041 178.969 3.38248 171.408 2.98455C161.261 2.38766 160.863 2.48714 161.56 4.47679Z" fill="#F3F0E5"/>
<path d="M142.957 25.5671L156.188 51.1341L146.936 69.1405C141.763 78.9893 135.794 90.5292 133.605 94.7075L129.626 102.467H116.892C104.855 102.467 103.064 102.069 105.153 99.9801C105.651 99.3832 110.625 90.0318 116.295 79.0887C121.966 68.1457 127.537 57.4015 128.731 55.3124L131.019 51.3331L126.741 43.3745C122.264 35.0179 104.954 2.0892 104.457 0.696442C104.258 0.298515 109.829 6.86646e-05 116.892 6.86646e-05H129.626L142.957 25.5671ZM109.232 3.87989C109.232 4.3773 109.929 5.57109 110.824 6.36695C111.719 7.2623 111.918 7.95868 111.222 7.95868C110.625 7.95868 110.426 8.45609 110.724 8.9535C111.122 9.5504 111.819 9.74936 112.316 9.45091C112.814 9.05299 112.913 9.64988 112.515 10.5452C112.018 11.8385 112.217 12.1369 113.51 11.6395C114.704 11.2416 114.903 11.4406 114.505 12.6344C114.107 13.6292 114.306 14.0271 114.903 13.6292C115.599 13.2313 115.898 13.6292 115.798 14.624C115.599 15.6188 116.594 18.1059 117.887 20.2945C119.28 22.3837 119.877 23.7764 119.28 23.478C118.385 22.8811 122.861 31.735 124.055 32.8293C124.354 33.1278 125.647 35.4159 126.841 38.0024C128.134 40.6885 129.626 42.7776 130.124 42.7776C130.72 42.7776 130.919 43.275 130.521 43.8719C130.223 44.4688 130.72 46.359 131.616 48.2491C132.81 50.3383 133.108 52.129 132.611 53.3228C132.113 54.4171 131.914 55.6109 132.014 56.1083C132.113 56.6057 131.417 57.8989 130.323 59.0927C127.537 62.2762 125.149 66.4545 125.149 68.1457C125.149 68.9415 124.652 69.6379 123.956 69.6379C123.359 69.6379 123.06 69.9363 123.359 70.2348C123.757 70.5332 122.463 73.5177 120.573 76.8006C118.683 80.0836 117.489 83.267 117.887 83.8639C118.285 84.4608 117.987 84.5603 117.191 84.0629C116.196 83.466 115.997 83.6649 116.494 84.9582C116.892 85.953 116.793 86.4505 116.196 86.0525C115.699 85.7541 114.803 86.4505 114.206 87.6443C113.41 89.1365 113.311 89.5344 114.107 89.1365C114.704 88.7386 115.201 88.838 115.201 89.3355C115.201 89.8329 114.206 90.6287 112.913 91.0267C111.719 91.3251 111.222 91.922 111.918 92.121C112.615 92.4194 112.814 93.3148 112.515 94.1106C112.217 94.807 111.62 95.3044 111.222 95.006C110.824 94.7075 110.227 95.6029 110.028 96.9956L109.531 99.3832L117.788 99.1842C122.762 99.0848 126.144 99.3832 126.244 99.9801C126.244 100.478 126.542 100.378 126.841 99.6816C127.04 99.0848 127.636 98.6868 128.034 98.8858C129.129 99.5822 133.307 89.6339 132.511 88.3406C132.014 87.6443 132.312 87.5448 133.108 88.0422C134.103 88.6391 134.302 88.4401 133.705 86.9479C133.307 85.953 133.307 85.4556 133.705 85.7541C134.799 86.9479 136.789 84.1624 136.391 82.0732C135.993 80.4815 136.092 80.382 136.988 81.5758C137.883 82.8691 138.082 82.6701 138.082 80.8794C138.082 79.6856 138.58 78.5913 139.176 78.3924C139.674 78.1934 140.271 77.2981 140.47 76.3032C140.569 75.3084 141.365 73.7167 142.26 72.7219C143.653 71.1301 143.653 70.6327 142.459 69.4389C140.868 67.8472 141.664 64.2658 143.255 65.2607C143.852 65.6586 143.852 66.156 143.056 66.6534C142.36 67.0513 142.161 67.9467 142.459 68.5436C143.753 70.5332 144.747 69.6379 144.549 66.6534C144.449 64.9622 144.847 63.271 145.344 62.9726C145.941 62.6741 146.041 62.8731 145.643 63.47C145.245 64.1664 145.344 64.6638 145.742 64.6638C146.24 64.6638 147.334 63.3705 148.329 61.7788C150.12 58.7943 150.716 56.1083 149.025 58.6948C148.528 59.4907 148.03 59.6896 148.03 59.0927C148.03 58.4958 148.727 57.4015 149.523 56.7052C150.418 56.0088 150.915 54.815 150.617 54.0191C150.319 53.2233 150.418 52.9248 151.015 53.2233C151.512 53.5217 152.408 52.7259 153.104 51.5321C154.198 49.5424 154.099 49.4429 152.806 50.5372C151.512 51.5321 151.313 51.3331 151.612 49.1445C151.811 47.1548 151.512 46.7569 150.319 47.1548C149.025 47.6522 148.926 47.5528 150.02 46.2595C150.816 45.2647 150.915 44.7672 150.12 44.7672C149.523 44.7672 149.025 43.9714 149.025 42.8771C149.025 41.8822 148.329 40.4895 147.533 39.7931C146.737 39.0967 146.339 38.2014 146.638 37.704C146.936 37.2066 146.439 36.8086 145.643 36.8086C144.648 36.8086 144.35 36.2117 144.747 35.1174C145.245 33.9236 145.046 33.7247 144.051 34.3216C143.056 34.9185 142.857 34.7195 143.355 33.5257C143.653 32.5309 143.653 31.8345 143.255 31.8345C142.36 31.8345 138.48 22.6821 138.878 21.4883C139.077 20.9909 138.48 20.8914 137.585 21.2893C136.689 21.5878 136.291 21.4883 136.59 20.8914C137.485 19.3992 135.197 15.7183 133.804 16.6137C133.108 17.0116 133.307 16.4147 134.103 15.4199C135.496 13.7287 135.396 13.6292 133.804 14.2261C132.81 14.624 132.213 14.5245 132.611 13.9276C132.909 13.4302 132.71 12.2364 132.213 11.2416C131.715 10.2468 131.019 8.65505 130.72 7.66022C130.422 6.66541 129.626 6.16799 129.129 6.46644C128.532 6.86436 128.134 6.76488 128.233 6.26747C128.731 3.58144 127.736 3.18351 118.683 3.08403C113.211 2.98454 109.232 3.28299 109.232 3.87989Z" fill="#F3F0E5"/>
<path d="M78.3922 0.795929C78.3922 1.19386 84.1622 12.6344 91.3249 26.363L104.158 51.1341L91.5239 75.5074C84.5601 89.037 78.7901 100.577 78.5912 101.174C78.2927 102.169 74.8108 102.467 65.36 102.467C58.2967 102.467 52.5267 102.268 52.5267 101.97C52.5267 101.671 58.3962 90.2308 65.6584 76.4027L78.6907 51.3331L75.1093 44.3693C73.1196 40.4895 67.2501 29.049 61.9776 19.1007C56.8045 9.05299 52.5267 0.596962 52.5267 0.397995C52.5267 0.199028 58.2967 6.86646e-05 65.4595 6.86646e-05C72.5227 6.86646e-05 78.3922 0.298515 78.3922 0.795929ZM56.506 3.97937C56.506 4.47678 57.0034 4.9742 57.5009 5.17316C58.0977 5.37213 58.6946 6.46644 58.9931 7.75971C59.391 9.84885 62.9724 15.7183 64.5641 16.9121C64.962 17.2106 65.4595 18.3049 65.6584 19.3992C65.8574 20.4935 66.6533 21.2893 67.3496 21.0904C68.245 20.8914 68.245 21.3888 67.3496 22.9806C66.4543 24.6718 66.5538 24.9702 67.5486 24.3733C68.4439 23.7764 68.6429 24.0749 68.1455 25.2687C67.7476 26.164 67.847 26.7609 68.3445 26.4624C68.7424 26.164 69.7372 27.7557 70.4336 29.9443C71.5279 33.0283 71.9258 33.6252 72.6222 32.3319C73.617 30.6407 75.4077 31.2376 75.4077 33.1278C75.4077 33.9236 75.1093 33.9236 74.5124 33.0283C73.9155 32.0335 73.5176 32.1329 73.1196 33.7247C72.8212 34.9185 73.0201 35.8138 73.4181 35.8138C73.9155 35.8138 75.6067 38.4998 77.0989 41.6833C78.6907 44.9662 79.4865 47.3538 78.8896 46.9559C78.3922 46.6574 78.4917 47.1548 79.2875 48.0502C79.9839 48.9455 80.8793 49.5424 81.2772 49.244C81.6751 49.045 81.7746 50.1393 81.5756 51.731C81.3767 53.4222 80.7798 54.5165 80.3819 54.2181C79.387 53.6212 77.8948 57.501 78.2927 59.5902C78.3922 60.2865 78.0938 60.585 77.5963 60.2865C76.3031 59.4907 75.3082 62.1767 76.0046 64.3653C76.502 65.8576 76.4025 65.957 75.5072 64.6638C74.6119 63.3705 74.4129 63.3705 74.4129 64.7633C74.4129 65.6586 73.7165 66.7529 72.9207 67.0513C72.0253 67.3498 71.4284 68.1457 71.5279 68.842C71.9258 71.926 71.3289 73.6172 69.8367 73.6172C68.4439 73.6172 68.3445 73.8162 69.5382 75.3084C70.732 76.8006 70.732 76.9001 69.2398 76.3032C67.9465 75.9053 67.7476 76.1043 68.1455 77.2981C68.5434 78.1934 68.046 79.1882 67.0512 79.7851C65.8574 80.4815 65.6584 81.0784 66.4543 82.5706C67.6481 84.8587 67.7476 86.5499 66.5538 84.6598C65.8574 83.5655 64.962 84.3613 62.9724 87.6443C61.4802 90.0318 59.6895 92.6184 59.0926 93.4142C58.1972 94.608 58.2967 94.7075 59.4905 94.0111C60.2864 93.6132 59.9879 94.3096 58.6946 95.7023C55.9091 98.7863 55.9091 99.7811 58.5952 98.9853C59.789 98.5873 60.4853 98.6868 60.1869 99.0848C59.8884 99.5822 63.2708 99.8806 67.6481 99.6816C74.5124 99.3832 76.0046 98.9853 77.4969 97.1946C79.387 94.9065 79.9839 93.0163 78.5912 93.9117C77.1984 94.7075 77.9943 88.5396 79.387 87.2463C80.3819 86.2515 80.3819 86.4505 79.387 88.4401C78.5912 90.0318 78.4917 91.0267 79.2875 91.8225C80.0834 92.6184 80.5808 92.0215 80.9788 89.7334C81.3767 87.9427 81.8741 86.7489 82.1725 87.0474C82.471 87.3458 84.5601 83.8639 86.7487 79.2877C89.0368 74.7115 91.4244 70.2348 92.1208 69.3395C92.9167 68.4441 93.1156 67.1508 92.7177 66.4545C92.3198 65.7581 92.3198 65.4596 92.8172 65.8576C93.9115 66.8524 96.2991 61.9777 95.6027 60.187C95.3042 59.0927 95.5032 58.8938 96.5975 59.1922C97.6918 59.6896 97.9903 59.1922 97.7913 57.3021C97.5924 55.8098 97.8908 54.9145 98.3882 55.3124C98.8856 55.6109 99.2836 55.7103 99.2836 55.5114C99.2836 55.3124 99.6815 53.7207 100.179 51.93C101.273 48.2491 99.383 45.4636 96.498 46.359C95.3042 46.7569 95.2048 46.6574 96.0006 46.0605C97.6918 44.8667 95.7022 37.4055 94.011 38.4004C93.3146 38.7983 93.1156 38.7983 93.5136 38.3009C93.9115 37.9029 92.7177 34.5205 90.8275 30.7402C88.042 25.3681 86.9477 24.0749 85.6544 24.4728C84.5601 24.8707 84.2617 24.6718 84.8586 24.1743C86.1518 23.08 86.5498 20.8914 85.555 20.8914C85.0575 20.8914 84.0627 19.1007 83.3663 16.9121C82.471 14.0271 81.7746 13.2313 80.8793 13.9276C79.9839 14.624 79.785 14.1266 79.8844 11.8385C79.9839 10.0478 79.4865 8.55557 78.7901 8.25713C77.9943 7.95868 77.6958 7.36178 77.9943 6.86436C78.2927 6.36695 77.8948 5.37213 77.1984 4.47678C76.2036 3.38248 73.7165 3.08403 66.1558 3.08403C60.8833 3.18351 56.506 3.58144 56.506 3.97937Z" fill="#F3F0E5"/>
<path d="M37.2063 22.5826C43.5732 35.1174 49.5421 46.5579 50.5369 48.0502C52.3276 51.1341 53.3224 48.9455 33.5254 87.0474L25.7658 101.97L12.833 102.268L-0.000232697 102.567L5.96872 90.8277C9.35113 84.3613 15.3201 72.8213 19.3989 65.2607L26.7606 51.4326L23.2787 44.8667C21.3885 41.1859 15.4196 29.6459 9.94803 19.1007L0.0992508 6.86646e-05H12.833H25.5668L37.2063 22.5826ZM4.77493 3.78041C4.87442 5.17316 7.56045 7.95868 8.85372 7.95868C9.84855 7.95868 9.84855 8.25713 8.9532 9.15247C7.56045 10.5452 7.36148 12.3359 8.65475 11.5401C9.45061 11.0426 11.1418 14.425 10.8434 16.1163C10.7439 16.6137 11.1418 16.9121 11.6392 16.9121C12.1366 16.9121 13.1315 18.9018 13.8279 21.3888C14.6237 24.1743 15.4196 25.3681 15.917 24.5723C16.4144 23.7764 16.7128 24.0749 16.7128 25.3681C16.7128 26.4624 17.6082 28.85 18.7025 30.6407C19.7968 32.4314 20.4932 34.3216 20.1947 34.819C19.8963 35.4159 20.2942 35.5154 21.1896 35.2169C22.2839 34.7195 22.5823 35.018 22.0849 36.2117C21.7865 37.1071 21.9854 37.8035 22.6818 37.8035C23.2787 37.8035 23.4777 38.2014 23.1792 38.7983C22.8808 39.2957 23.0797 39.7931 23.5771 39.7931C24.174 39.7931 24.6715 40.39 24.6715 41.1859C24.6715 41.8823 25.6663 43.7724 26.8601 45.3641C28.1533 46.8564 28.4518 47.7517 27.6559 47.3538C26.4621 46.6574 26.3627 46.7569 27.3575 47.8512C28.8497 49.3434 29.0487 53.3228 27.6559 54.2181C27.1585 54.5165 27.059 55.5114 27.3575 56.4067C27.7554 57.501 27.6559 57.7995 26.8601 57.3021C25.7658 56.6057 25.2684 57.9984 25.3678 61.3808C25.4673 62.0772 25.1689 62.4752 24.7709 62.2762C24.373 61.9777 23.4777 63.271 22.7813 64.9622C21.9854 66.7529 20.8911 68.842 20.1947 69.6379C19.4984 70.4338 19.1004 72.125 19.1999 73.3188C19.2994 74.612 18.9015 75.2089 18.2051 74.9105C17.2103 74.612 16.116 75.9053 15.2206 78.5913C14.4247 81.1779 12.2361 84.5603 11.3408 84.5603C10.7439 84.5603 10.9429 85.0577 11.7387 85.5551C12.7335 86.152 12.833 86.5499 12.0372 86.5499C11.3408 86.5499 10.8434 86.8484 10.8434 87.2463C11.1418 89.3355 10.6444 90.5293 9.5501 89.9324C8.85372 89.4349 8.75424 89.6339 9.15217 90.4298C9.64958 91.1261 9.25165 92.121 8.45579 92.8174C7.56045 93.5137 6.56562 95.2049 6.16769 96.6972L5.57079 99.4827H13.6289C19.3989 99.4827 21.687 99.0848 21.687 98.1894C21.687 97.3936 22.0849 97.493 22.6818 98.4879C23.2787 99.4827 23.6766 99.5822 23.6766 98.7863C23.6766 98.0899 24.174 97.5925 24.7709 97.7915C25.3678 97.891 26.1637 97.3936 26.3627 96.6972C26.6611 95.9013 26.2632 95.7023 24.9699 96.1998C23.4777 96.6972 23.4777 96.4982 25.2684 94.9065C28.0539 92.3199 29.8446 88.7386 29.0487 87.3458C28.6508 86.7489 28.7502 86.5499 29.3471 86.8484C30.9389 87.8432 32.829 82.7696 31.6352 80.581C30.7399 78.9893 30.9389 78.7903 33.028 79.1882C35.0176 79.4867 35.5151 79.0888 36.112 76.6017C36.5099 75.01 37.2063 73.6172 37.7037 73.6172C38.3006 73.6172 38.4995 73.2193 38.2011 72.7219C37.9026 72.2245 38.3006 71.3291 39.0964 70.6327C39.8923 69.9364 40.5887 68.5436 40.5887 67.4493C40.5887 66.355 40.9866 65.8576 41.683 66.2555C42.3794 66.6534 42.2799 66.0565 41.484 64.5643C40.2902 62.2762 40.3897 62.2762 42.1804 63.6689C43.1752 64.4648 43.7721 64.7633 43.3742 64.2658C42.6778 63.47 45.0654 57.7 46.5576 56.7052C46.9556 56.4067 47.6519 54.815 48.2488 53.2233C49.0447 50.8357 48.9452 49.9403 47.6519 48.7466C46.8561 47.9507 45.6623 47.3538 45.1649 47.5528C44.6675 47.7517 44.7669 47.1548 45.5628 46.359C46.2592 45.4636 46.3587 44.7673 45.7618 44.7673C45.2644 44.7673 44.4685 43.6729 44.17 42.3797C43.8716 40.9869 42.3794 38.5993 40.9866 36.9081C39.5938 35.2169 38.6985 33.4262 38.997 32.9288C39.2954 32.4314 38.8975 31.5361 38.1016 30.8397C37.3057 30.1433 36.6094 28.85 36.6094 27.9547C36.6094 27.0593 35.913 25.3681 35.1171 24.2738C34.3213 23.08 34.0228 21.7868 34.4208 21.2894C34.8187 20.7919 34.4208 20.9909 33.6249 21.5878C32.2321 22.5826 32.0332 22.3837 32.1327 20.0956C32.2321 16.8126 30.6404 13.8282 29.1482 14.624C28.6508 15.0219 28.4518 14.9225 28.8497 14.425C29.2477 14.0271 28.6508 11.938 27.5564 9.84885C26.4621 7.66023 25.8652 5.96902 26.1637 5.96902C26.4621 5.96902 26.1637 5.37213 25.4673 4.57627C24.7709 3.78041 23.8756 3.38248 23.3782 3.68093C22.9803 3.87989 22.6818 3.78041 22.6818 3.283C22.6818 2.88506 18.7025 2.58662 13.7284 2.78558C8.85372 2.98455 4.77493 3.38248 4.77493 3.78041Z" fill="#F3F0E5"/>
</svg>
